{"title":"The Tell-Tale Heart 2016 Movies DVDRip XViD ESubs AAC New ☻rDX☻","uid":14200612,"size":738615296,"categoryP":"video","categoryS":"movies","magnet":"?xt=urn:btih:8c918251dc878051364121b52a4ec5bc9ee92f2d&amp;dn=The+Tell-Tale+Heart+2016+Movies+DVDRip+XViD+ESubs+AAC+New+%E2%98%BBrDX%E2%98%BB&amp;tr=udp%3A%2F%2Ftracker.leechers-paradise.org%3A6969&amp;tr=udp%3A%2F%2Fzer0day.ch%3A1337&amp;tr=udp%3A%2F%2Fopen.demonii.com%3A1337&amp;tr=udp%3A%2F%2Ftracker.coppersurfer.tk%3A6969&amp;tr=udp%3A%2F%2Fexodus.desync.com%3A6969","seeders":1,"leechers":0,"uploader":"basicssom","files":3,"time":1459922886,"description":"----------------------------------------------------------------\r\nThe Tell-Tale Heart 2016 English Movies DVDRip XViD ESubs AAC New Source with Sample ~ ☻rDX☻\r\n\r\nSCREEN SHOTS &amp; POSTER:\r\n  \nhttp://mobileshosting.com/2016/4/internet/index.htm  \nhttp://mobileshosting.com/2016/4/internet/1.html  \nhttp://mobileshosting.com/2016/4/internet/2.html  \nhttp://mobileshosting.com/2016/4/internet/3.html  \nhttp://mobileshosting.com/2016/4/internet/4.html  \nhttp://mobileshosting.com/2016/4/internet/5.html  \nhttp://mobileshosting.com/2016/4/internet/6.html  \nhttp://mobileshosting.com/2016/4/internet/7.html  \nhttp://mobileshosting.com/2016/4/internet/8.html  \nhttp://mobileshosting.com/2016/4/internet/9.html  \nhttp://mobileshosting.com/2016/4/internet/10.html\r\n\r\nFormat                                   : Matroska\r\nFormat version                           : Version 4 / Version 2\r\nFile size                                : 694 MiB\r\nDuration                                 : 1h 22mn\r\nOverall bit rate                         : 1 180 Kbps\r\nMovie name                               : The Tell-Tale Heart 2016 English Movies DVDRip XViD ESubs AAC New Source ☻rDX☻\r\n\r\nVideo\r\nID                                       : 1\r\nFormat                                   : MPEG-4 Visual\r\nFormat profile                           : Advanced   \r\nFormat settings, BVOP                    : Yes\r\nFormat settings, QPel                    : No\r\nFormat settings, GMC                     : No warppoints\r\nFormat settings, Matrix                  : Default (H.263)\r\nCodec ID                                 : V_MS/VFW/FOURCC / XVID\r\nCodec ID/Hint                            : XviD\r\nDuration                                 : 1h 22mn\r\nBit rate                                 : 1 028 Kbps\r\nWidth                                    : 640 pixels\r\nHeight                                   : 272 pixels\r\nDisplay aspect ratio                     : 2.35:1\r\nFrame rate mode                          : Constant\r\nFrame rate                               : 23.976 fps\r\nColor space                              : YUV\r\nChroma subsampling                       : 4:2:0\r\nBit depth                                : 8 bits\r\nScan type                                : Progressive\r\nCompression mode                         : Lossy\r\nBits/(Pixel*Frame)                       : 0.246\r\nStream size                              : 605 MiB (87%)\r\nTitle                                    : ☻rDX☻\r\nWriting library                          : XviD 65\r\nDefault                                  : Yes\r\nForced                                   : No\r\n\r\nAudio\r\nID                                       : 2\r\nFormat                                   : MPEG Audio\r\nFormat version                           : Version 1\r\nFormat profile                           : Layer 3\r\nMode                                     : Joint stereo\r\nMode extension                           : MS Stereo\r\nCodec ID                                 : A_MPEG/L3\r\nCodec ID/Hint                            : MP3\r\nDuration                                 : 1h 22mn\r\nBit rate mode                            : Constant\r\nBit rate                                 : 128 Kbps\r\nChannel(s)                               : 2 channels\r\nSampling rate                            : 48.0 KHz\r\nCompression mode                         : Lossy\r\nStream size                              : 75.3 MiB (11%)\r\nTitle                                    : ☻rDX☻\r\nWriting library                          : LAME3.99r\r\nEncoding settings                        : -m j -V 4 -q 3 -lowpass 17 -b 128\r\nDefault                                  : Yes\r\nForced                                   : No\r\n\r\nIMDB \nhttp://www.imdb.com/title/tt2087989/","torrent":{"xt":"urn:btih:8c918251dc878051364121b52a4ec5bc9ee92f2d","amp;dn":"The+Tell-Tale+Heart+2016+Movies+DVDRip+XViD+ESubs+AAC+New+%E2%98%BBrDX%E2%98%BB","amp;tr":["udp%3A%2F%2Ftracker.leechers-paradise.org%3A6969","udp%3A%2F%2Fzer0day.ch%3A1337","udp%3A%2F%2Fopen.demonii.com%3A1337","udp%3A%2F%2Ftracker.coppersurfer.tk%3A6969","udp%3A%2F%2Fexodus.desync.com%3A6969"],"infoHash":"8c918251dc878051364121b52a4ec5bc9ee92f2d","infoHashBuffer":{"type":"Buffer","data":[140,145,130,81,220,135,128,81,54,65,33,181,42,78,197,188,158,233,47,45]},"announce":[],"urlList":[]}}